<svg id="Слой_1" data-name="Слой 1" xmlns="http://www.w3.org/2000/svg" xmlns:xlink="http://www.w3.org/1999/xlink" viewBox="0 0 147.96 149.12"><defs><linearGradient id="Безымянный_градиент_13" x1="447.6" y1="274.23" x2="449.59" y2="274.23" gradientUnits="userSpaceOnUse"><stop offset="0" stop-color="#977619"/><stop offset="0.5" stop-color="#f3d05c"/><stop offset="1" stop-color="#977619"/></linearGradient><linearGradient id="Безымянный_градиент_13-2" x1="446.8" y1="294.09" x2="448.81" y2="294.09" xlink:href="#Безымянный_градиент_13"/><linearGradient id="Безымянный_градиент_13-3" x1="446.37" y1="284.13" x2="448.37" y2="284.13" xlink:href="#Безымянный_градиент_13"/><linearGradient id="Безымянный_градиент_13-4" x1="457.64" y1="251.56" x2="459.64" y2="251.56" xlink:href="#Безымянный_градиент_13"/><linearGradient id="Безымянный_градиент_13-5" x1="454.88" y1="255.72" x2="456.88" y2="255.72" xlink:href="#Безымянный_градиент_13"/><linearGradient id="Безымянный_градиент_13-6" x1="450.45" y1="264.67" x2="452.45" y2="264.67" xlink:href="#Безымянный_градиент_13"/><linearGradient id="Безымянный_градиент_13-7" x1="448.82" y1="269.39" x2="450.82" y2="269.39" xlink:href="#Безымянный_градиент_13"/><linearGradient id="Безымянный_градиент_13-8" x1="452.48" y1="260.1" x2="454.48" y2="260.1" xlink:href="#Безымянный_градиент_13"/><linearGradient id="Безымянный_градиент_13-9" x1="446.38" y1="289.12" x2="448.38" y2="289.12" xlink:href="#Безымянный_градиент_13"/><linearGradient id="Безымянный_градиент_13-10" x1="450.54" y1="308.56" x2="452.54" y2="308.56" xlink:href="#Безымянный_градиент_13"/><linearGradient id="Безымянный_градиент_13-11" x1="454.99" y1="317.48" x2="456.99" y2="317.48" xlink:href="#Безымянный_градиент_13"/><linearGradient id="Безымянный_градиент_13-12" x1="452.57" y1="313.11" x2="454.57" y2="313.11" xlink:href="#Безымянный_градиент_13"/><linearGradient id="Безымянный_градиент_13-13" x1="448.89" y1="303.85" x2="450.88" y2="303.85" xlink:href="#Безымянный_градиент_13"/><linearGradient id="Безымянный_градиент_13-14" x1="447.64" y1="299.01" x2="449.64" y2="299.01" xlink:href="#Безымянный_градиент_13"/><linearGradient id="Безымянный_градиент_13-15" x1="457.76" y1="321.63" x2="459.76" y2="321.63" xlink:href="#Безымянный_градиент_13"/><linearGradient id="Безымянный_градиент_13-16" x1="464.29" y1="329.17" x2="466.29" y2="329.17" xlink:href="#Безымянный_градиент_13"/><linearGradient id="Безымянный_градиент_13-17" x1="460.73" y1="247.64" x2="462.73" y2="247.64" xlink:href="#Безымянный_градиент_13"/><linearGradient id="Безымянный_градиент_13-18" x1="460.87" y1="325.54" x2="462.87" y2="325.54" xlink:href="#Безымянный_градиент_13"/><linearGradient id="Безымянный_градиент_13-19" x1="489.77" y1="229.1" x2="491.77" y2="229.1" xlink:href="#Безымянный_градиент_13"/><linearGradient id="Безымянный_градиент_13-20" x1="528.91" y1="231.45" x2="530.92" y2="231.45" xlink:href="#Безымянный_градиент_13"/><linearGradient id="Безымянный_градиент_13-21" x1="524.22" y1="229.72" x2="526.23" y2="229.72" xlink:href="#Безымянный_градиент_13"/><linearGradient id="Безымянный_градиент_13-22" x1="519.41" y1="228.4" x2="521.41" y2="228.4" xlink:href="#Безымянный_градиент_13"/><linearGradient id="Безымянный_градиент_13-23" x1="514.5" y1="227.48" x2="516.5" y2="227.48" xlink:href="#Безымянный_градиент_13"/><linearGradient id="Безымянный_градиент_13-24" x1="509.54" y1="226.98" x2="511.54" y2="226.98" xlink:href="#Безымянный_градиент_13"/><linearGradient id="Безымянный_градиент_13-25" x1="545.73" y1="242.07" x2="547.73" y2="242.07" xlink:href="#Безымянный_градиент_13"/><linearGradient id="Безымянный_градиент_13-26" x1="541.87" y1="238.89" x2="543.87" y2="238.89" xlink:href="#Безымянный_градиент_13"/><linearGradient id="Безымянный_градиент_13-27" x1="537.76" y1="236.05" x2="539.77" y2="236.05" xlink:href="#Безымянный_градиент_13"/><linearGradient id="Безымянный_градиент_13-28" x1="533.43" y1="233.57" x2="535.44" y2="233.57" xlink:href="#Безымянный_градиент_13"/><linearGradient id="Безымянный_градиент_13-29" x1="499.56" y1="227.21" x2="501.57" y2="227.21" xlink:href="#Безымянный_градиент_13"/><linearGradient id="Безымянный_градиент_13-30" x1="480.43" y1="232.6" x2="482.43" y2="232.6" xlink:href="#Безымянный_градиент_13"/><linearGradient id="Безымянный_градиент_13-31" x1="476.02" y1="234.93" x2="478.02" y2="234.93" xlink:href="#Безымянный_градиент_13"/><linearGradient id="Безымянный_градиент_13-32" x1="504.55" y1="226.89" x2="506.55" y2="226.89" xlink:href="#Безымянный_градиент_13"/><linearGradient id="Безымянный_градиент_13-33" x1="467.85" y1="240.64" x2="469.84" y2="240.64" xlink:href="#Безымянный_градиент_13"/><linearGradient id="Безымянный_градиент_13-34" x1="471.81" y1="237.61" x2="473.81" y2="237.61" xlink:href="#Безымянный_градиент_13"/><linearGradient id="Безымянный_градиент_13-35" x1="494.63" y1="227.95" x2="496.63" y2="227.95" xlink:href="#Безымянный_градиент_13"/><linearGradient id="Безымянный_градиент_13-36" x1="464.14" y1="243.99" x2="466.14" y2="243.99" xlink:href="#Безымянный_градиент_13"/><linearGradient id="Безымянный_градиент_13-37" x1="485.02" y1="230.65" x2="487.03" y2="230.65" xlink:href="#Безымянный_градиент_13"/><linearGradient id="Безымянный_градиент_13-38" x1="468.01" y1="332.51" x2="470.01" y2="332.51" xlink:href="#Безымянный_градиент_13"/><linearGradient id="Безымянный_градиент_13-39" x1="446.77" y1="279.15" x2="448.78" y2="279.15" xlink:href="#Безымянный_градиент_13"/><linearGradient id="Безымянный_градиент_13-40" x1="564.78" y1="296.45" x2="566.77" y2="296.45" xlink:href="#Безымянный_градиент_13"/><linearGradient id="Безымянный_градиент_13-41" x1="563.74" y1="301.34" x2="565.74" y2="301.34" xlink:href="#Безымянный_градиент_13"/><linearGradient id="Безымянный_градиент_13-42" x1="552.72" y1="323.54" x2="554.71" y2="323.54" xlink:href="#Безымянный_градиент_13"/><linearGradient id="Безымянный_градиент_13-43" x1="565.6" y1="286.4" x2="567.6" y2="286.4" xlink:href="#Безымянный_градиент_13"/><linearGradient id="Безымянный_градиент_13-44" x1="560.46" y1="310.76" x2="562.47" y2="310.76" xlink:href="#Безымянный_градиент_13"/><linearGradient id="Безымянный_градиент_13-45" x1="558.24" y1="315.23" x2="560.24" y2="315.23" xlink:href="#Безымянный_градиент_13"/><linearGradient id="Безымянный_градиент_13-46" x1="562.3" y1="306.11" x2="564.31" y2="306.11" xlink:href="#Безымянный_градиент_13"/><linearGradient id="Безымянный_градиент_13-47" x1="471.99" y1="335.53" x2="473.99" y2="335.53" xlink:href="#Безымянный_градиент_13"/><linearGradient id="Безымянный_градиент_13-48" x1="565.38" y1="281.3" x2="567.38" y2="281.3" xlink:href="#Безымянный_градиент_13"/><linearGradient id="Безымянный_градиент_13-49" x1="565.4" y1="291.5" x2="567.39" y2="291.5" xlink:href="#Безымянный_градиент_13"/><linearGradient id="Безымянный_градиент_13-50" x1="558.14" y1="257.6" x2="560.14" y2="257.6" xlink:href="#Безымянный_градиент_13"/><linearGradient id="Безымянный_градиент_13-51" x1="555.54" y1="253.34" x2="557.53" y2="253.34" xlink:href="#Безымянный_градиент_13"/><linearGradient id="Безымянный_градиент_13-52" x1="552.59" y1="249.32" x2="554.59" y2="249.32" xlink:href="#Безымянный_градиент_13"/><linearGradient id="Безымянный_градиент_13-53" x1="549.31" y1="245.55" x2="551.31" y2="245.55" xlink:href="#Безымянный_градиент_13"/><linearGradient id="Безымянный_градиент_13-54" x1="562.23" y1="266.69" x2="564.23" y2="266.69" xlink:href="#Безымянный_градиент_13"/><linearGradient id="Безымянный_градиент_13-55" x1="560.38" y1="262.06" x2="562.38" y2="262.06" xlink:href="#Безымянный_градиент_13"/><linearGradient id="Безымянный_градиент_13-56" x1="563.69" y1="271.47" x2="565.69" y2="271.47" xlink:href="#Безымянный_градиент_13"/><linearGradient id="Безымянный_градиент_13-57" x1="564.74" y1="276.35" x2="566.73" y2="276.35" xlink:href="#Безымянный_градиент_13"/><linearGradient id="Безымянный_градиент_13-58" x1="555.65" y1="319.5" x2="557.65" y2="319.5" xlink:href="#Безымянный_градиент_13"/><linearGradient id="Безымянный_градиент_13-59" x1="494.85" y1="345.11" x2="496.85" y2="345.11" xlink:href="#Безымянный_градиент_13"/><linearGradient id="Безымянный_градиент_13-60" x1="509.77" y1="346.03" x2="511.76" y2="346.03" xlink:href="#Безымянный_градиент_13"/><linearGradient id="Безымянный_градиент_13-61" x1="489.98" y1="343.98" x2="491.99" y2="343.98" xlink:href="#Безымянный_градиент_13"/><linearGradient id="Безымянный_градиент_13-62" x1="504.77" y1="346.14" x2="506.77" y2="346.14" xlink:href="#Безымянный_градиент_13"/><linearGradient id="Безымянный_градиент_13-63" x1="499.79" y1="345.83" x2="501.79" y2="345.83" xlink:href="#Безымянный_градиент_13"/><linearGradient id="Безымянный_градиент_13-64" x1="476.21" y1="338.2" x2="478.2" y2="338.2" xlink:href="#Безымянный_градиент_13"/><linearGradient id="Безымянный_градиент_13-65" x1="485.24" y1="342.45" x2="487.24" y2="342.45" xlink:href="#Безымянный_градиент_13"/><linearGradient id="Безымянный_градиент_13-66" x1="480.63" y1="340.51" x2="482.63" y2="340.51" xlink:href="#Безымянный_градиент_13"/><linearGradient id="Безымянный_градиент_13-67" x1="542.04" y1="334" x2="544.04" y2="334" xlink:href="#Безымянный_градиент_13"/><linearGradient id="Безымянный_градиент_13-68" x1="549.45" y1="327.32" x2="551.45" y2="327.32" xlink:href="#Безымянный_градиент_13"/><linearGradient id="Безымянный_градиент_13-69" x1="537.94" y1="336.86" x2="539.94" y2="336.86" xlink:href="#Безымянный_градиент_13"/><linearGradient id="Безымянный_градиент_13-70" x1="545.88" y1="330.81" x2="547.88" y2="330.81" xlink:href="#Безымянный_градиент_13"/><linearGradient id="Безымянный_градиент_13-71" x1="514.73" y1="345.51" x2="516.73" y2="345.51" xlink:href="#Безымянный_градиент_13"/><linearGradient id="Безымянный_градиент_13-72" x1="533.62" y1="339.36" x2="535.63" y2="339.36" xlink:href="#Безымянный_градиент_13"/><linearGradient id="Безымянный_градиент_13-73" x1="519.63" y1="344.57" x2="521.63" y2="344.57" xlink:href="#Безымянный_градиент_13"/><linearGradient id="Безымянный_градиент_13-74" x1="524.44" y1="343.23" x2="526.44" y2="343.23" xlink:href="#Безымянный_градиент_13"/><linearGradient id="Безымянный_градиент_13-75" x1="529.11" y1="341.49" x2="531.11" y2="341.49" xlink:href="#Безымянный_градиент_13"/><linearGradient id="Безымянный_градиент_13-76" x1="432.99" y1="286.51" x2="580.94" y2="286.51" xlink:href="#Безымянный_градиент_13"/><linearGradient id="Безымянный_градиент_13-77" x1="436.89" y1="286.51" x2="577.04" y2="286.51" xlink:href="#Безымянный_градиент_13"/><linearGradient id="Безымянный_градиент_13-78" x1="450.09" y1="286.83" x2="563.84" y2="286.83" xlink:href="#Безымянный_градиент_13"/></defs><title>verified-gold</title><path d="M448.39,275.2a.71.71,0,0,0,.2,0,1,1,0,0,0,1-.8,1,1,0,1,0-1.18.77Z" transform="translate(-432.99 -211.95)" style="fill:url(#Безымянный_градиент_13)"/><path d="M447.93,295.08a1,1,0,0,0,.87-1.11,1,1,0,1,0-1,1.12Z" transform="translate(-432.99 -211.95)" style="fill:url(#Безымянный_градиент_13-2)"/><path d="M447.33,285.13h0a1,1,0,0,0,1-1,1,1,0,1,0-2-.08A1,1,0,0,0,447.33,285.13Z" transform="translate(-432.99 -211.95)" style="fill:url(#Безымянный_градиент_13-3)"/><path d="M458.63,252.56a1,1,0,0,0,.81-.41h0a1,1,0,1,0-1.4.22A1,1,0,0,0,458.63,252.56Z" transform="translate(-432.99 -211.95)" style="fill:url(#Безымянный_градиент_13-4)"/><path d="M455.36,256.58a1,1,0,0,0,1.37-.34,1,1,0,0,0-1.71-1A1,1,0,0,0,455.36,256.58Z" transform="translate(-432.99 -211.95)" style="fill:url(#Безымянный_градиент_13-5)"/><path d="M451.09,265.6a.94.94,0,0,0,.37.07,1,1,0,0,0,.36-1.93,1,1,0,1,0-.73,1.86Z" transform="translate(-432.99 -211.95)" style="fill:url(#Безымянный_градиент_13-6)"/><path d="M449.54,270.35a1.31,1.31,0,0,0,.28,0,1,1,0,0,0,1-.72h0a1,1,0,0,0-1.92-.58A1,1,0,0,0,449.54,270.35Z" transform="translate(-432.99 -211.95)" style="fill:url(#Безымянный_градиент_13-7)"/><path d="M453,261a1,1,0,0,0,.44.1,1,1,0,1,0-.44-.1Z" transform="translate(-432.99 -211.95)" style="fill:url(#Безымянный_градиент_13-8)"/><path d="M447.43,290.12a1,1,0,1,0-1-1,1,1,0,0,0,1,1Z" transform="translate(-432.99 -211.95)" style="fill:url(#Безымянный_градиент_13-9)"/><path d="M451.16,307.63a1,1,0,0,0,.38,1.93,1,1,0,1,0-.38-1.93Z" transform="translate(-432.99 -211.95)" style="fill:url(#Безымянный_градиент_13-10)"/><path d="M455.47,316.63a1,1,0,0,0,.52,1.85,1.07,1.07,0,0,0,.52-.14,1,1,0,0,0,.33-1.38A1,1,0,0,0,455.47,316.63Z" transform="translate(-432.99 -211.95)" style="fill:url(#Безымянный_градиент_13-11)"/><path d="M453.13,312.22a1,1,0,0,0,.45,1.89,1,1,0,0,0,.44-.1,1,1,0,0,0,.45-1.34A1,1,0,0,0,453.13,312.22Z" transform="translate(-432.99 -211.95)" style="fill:url(#Безымянный_градиент_13-12)"/><path d="M450.84,303.56a1,1,0,1,0-1,1.29,1,1,0,0,0,.3,0A1,1,0,0,0,450.84,303.56Z" transform="translate(-432.99 -211.95)" style="fill:url(#Безымянный_градиент_13-13)"/><path d="M449.62,298.81a1,1,0,1,0-1,1.2.77.77,0,0,0,.21,0A1,1,0,0,0,449.62,298.81Z" transform="translate(-432.99 -211.95)" style="fill:url(#Безымянный_градиент_13-14)"/><path d="M458.17,320.83a1,1,0,0,0-.22,1.39,1,1,0,0,0,.81.41,1,1,0,0,0,.59-.19,1,1,0,0,0,.22-1.4A1,1,0,0,0,458.17,320.83Z" transform="translate(-432.99 -211.95)" style="fill:url(#Безымянный_градиент_13-15)"/><path d="M464.58,328.47a1,1,0,0,0,.71,1.7,1,1,0,0,0,.72-.3,1,1,0,0,0-1.43-1.4Z" transform="translate(-432.99 -211.95)" style="fill:url(#Безымянный_градиент_13-16)"/><path d="M461.73,248.64a1,1,0,0,0,.76-.34,1,1,0,0,0-.11-1.42,1,1,0,1,0-.65,1.76Z" transform="translate(-432.99 -211.95)" style="fill:url(#Безымянный_градиент_13-17)"/><path d="M461.21,324.78a1,1,0,1,0,1.41.1A1,1,0,0,0,461.21,324.78Z" transform="translate(-432.99 -211.95)" style="fill:url(#Безымянный_градиент_13-18)"/><path d="M490.77,230.1a1.24,1.24,0,0,0,.27,0,1,1,0,1,0-.27,0Z" transform="translate(-432.99 -211.95)" style="fill:url(#Безымянный_градиент_13-19)"/><path d="M529.53,232.37a.85.85,0,0,0,.38.08,1,1,0,0,0,.93-.61,1,1,0,0,0-1.85-.77A1,1,0,0,0,529.53,232.37Z" transform="translate(-432.99 -211.95)" style="fill:url(#Безымянный_градиент_13-20)"/><path d="M524.92,230.68h0a.79.79,0,0,0,.3,0,1,1,0,1,0-.3,0Z" transform="translate(-432.99 -211.95)" style="fill:url(#Безымянный_градиент_13-21)"/><path d="M520.19,229.37a.86.86,0,0,0,.22,0,1,1,0,1,0-.22,0Z" transform="translate(-432.99 -211.95)" style="fill:url(#Безымянный_градиент_13-22)"/><path d="M515.36,228.47h.15a1,1,0,0,0,1-.86,1,1,0,1,0-1.13.85Z" transform="translate(-432.99 -211.95)" style="fill:url(#Безымянный_градиент_13-23)"/><path d="M510.48,228h.06a1,1,0,1,0-.06,0Z" transform="translate(-432.99 -211.95)" style="fill:url(#Безымянный_градиент_13-24)"/><path d="M546.73,243.07a1,1,0,0,0,.67-1.75,1,1,0,0,0-1.42.08,1,1,0,0,0,.08,1.41A1,1,0,0,0,546.73,243.07Z" transform="translate(-432.99 -211.95)" style="fill:url(#Безымянный_градиент_13-25)"/><path d="M542.87,239.89a1,1,0,0,0,.61-1.79,1,1,0,0,0-1.21,1.59A1,1,0,0,0,542.87,239.89Z" transform="translate(-432.99 -211.95)" style="fill:url(#Безымянный_градиент_13-26)"/><path d="M538.23,236.9a1,1,0,0,0,.53.15,1,1,0,1,0-.53-.15Z" transform="translate(-432.99 -211.95)" style="fill:url(#Безымянный_градиент_13-27)"/><path d="M534,234.45a1,1,0,1,0-.42-1.35A1,1,0,0,0,534,234.45Z" transform="translate(-432.99 -211.95)" style="fill:url(#Безымянный_градиент_13-28)"/><path d="M500.57,228.21h.1a1.06,1.06,0,1,0-.1,0Z" transform="translate(-432.99 -211.95)" style="fill:url(#Безымянный_градиент_13-29)"/><path d="M481.43,233.6a1.07,1.07,0,0,0,.43-.09h0a1,1,0,1,0-.43.1Z" transform="translate(-432.99 -211.95)" style="fill:url(#Безымянный_градиент_13-30)"/><path d="M477,235.93a1,1,0,0,0,.5-.14,1,1,0,0,0-1-1.73,1,1,0,0,0,.5,1.87Z" transform="translate(-432.99 -211.95)" style="fill:url(#Безымянный_градиент_13-31)"/><path d="M505.55,227.89h0a1,1,0,1,0,0-2,1,1,0,0,0-1,1A1,1,0,0,0,505.55,227.89Z" transform="translate(-432.99 -211.95)" style="fill:url(#Безымянный_градиент_13-32)"/><path d="M468.84,241.64a1,1,0,0,0,.64-.23,1,1,0,1,0-1.4-.13A1,1,0,0,0,468.84,241.64Z" transform="translate(-432.99 -211.95)" style="fill:url(#Безымянный_градиент_13-33)"/><path d="M472.81,238.61a1,1,0,0,0,.58-.17,1,1,0,0,0-1.15-1.65,1,1,0,0,0-.25,1.4A1,1,0,0,0,472.81,238.61Z" transform="translate(-432.99 -211.95)" style="fill:url(#Безымянный_градиент_13-34)"/><path d="M495.62,229l.2,0a1,1,0,1,0-.2,0Z" transform="translate(-432.99 -211.95)" style="fill:url(#Безымянный_градиент_13-35)"/><path d="M465.14,245a1,1,0,0,0,.71-.28,1,1,0,1,0-1.42,0A1,1,0,0,0,465.14,245Z" transform="translate(-432.99 -211.95)" style="fill:url(#Безымянный_градиент_13-36)"/><path d="M486,231.65a1.12,1.12,0,0,0,.35-.06,1,1,0,1,0-.71-1.87h0a1,1,0,0,0,.35,1.93Z" transform="translate(-432.99 -211.95)" style="fill:url(#Безымянный_градиент_13-37)"/><path d="M468.24,331.87a1,1,0,0,0,.13,1.41,1,1,0,0,0,.63.23,1,1,0,1,0-.76-1.64Z" transform="translate(-432.99 -211.95)" style="fill:url(#Безымянный_градиент_13-38)"/><path d="M447.65,280.14h.13a1,1,0,1,0-.13,0Z" transform="translate(-432.99 -211.95)" style="fill:url(#Безымянный_градиент_13-39)"/><path d="M565.94,295.46a1,1,0,0,0-.33,2h.17a1,1,0,0,0,.16-2Z" transform="translate(-432.99 -211.95)" style="fill:url(#Безымянный_градиент_13-40)"/><path d="M565,300.37a1,1,0,1,0-.49,1.94,1,1,0,0,0,.24,0,1,1,0,0,0,1-.75h0A1,1,0,0,0,565,300.37Z" transform="translate(-432.99 -211.95)" style="fill:url(#Безымянный_градиент_13-41)"/><path d="M552.93,322.92a1,1,0,0,0,1.57,1.24,1,1,0,0,0-.17-1.4A1,1,0,0,0,552.93,322.92Z" transform="translate(-432.99 -211.95)" style="fill:url(#Безымянный_градиент_13-42)"/><path d="M566.59,285.29a1,1,0,0,0-1,1,.5.5,0,0,0,0,.12.34.34,0,0,0,0,.1,1,1,0,1,0,2,0,.42.42,0,0,0,0-.11.5.5,0,0,0,0-.12A1,1,0,0,0,566.59,285.29Z" transform="translate(-432.99 -211.95)" style="fill:url(#Безымянный_градиент_13-43)"/><path d="M561.87,309.85a1,1,0,0,0-1.32.5,1,1,0,0,0,.51,1.32,1,1,0,0,0,.4.09,1,1,0,0,0,.92-.59A1,1,0,0,0,561.87,309.85Z" transform="translate(-432.99 -211.95)" style="fill:url(#Безымянный_градиент_13-44)"/><path d="M559.72,314.36a1,1,0,0,0-1,1.75,1,1,0,0,0,.48.12,1,1,0,0,0,.48-1.87Z" transform="translate(-432.99 -211.95)" style="fill:url(#Безымянный_градиент_13-45)"/><path d="M563.63,305.17a1,1,0,0,0-.66,1.89,1,1,0,0,0,.33,0,1,1,0,0,0,.33-1.94Z" transform="translate(-432.99 -211.95)" style="fill:url(#Безымянный_градиент_13-46)"/><path d="M473.56,334.7a1,1,0,1,0-1.14,1.65,1,1,0,0,0,.57.18,1,1,0,0,0,.57-1.82Z" transform="translate(-432.99 -211.95)" style="fill:url(#Безымянный_градиент_13-47)"/><path d="M565.38,281.39a1,1,0,0,0,1,.91h.08a1,1,0,1,0-1.08-.91Z" transform="translate(-432.99 -211.95)" style="fill:url(#Безымянный_градиент_13-48)"/><path d="M566.48,290.5a1,1,0,0,0-1.08.91,1,1,0,0,0,.91,1.09h.08a1,1,0,0,0,.09-2Z" transform="translate(-432.99 -211.95)" style="fill:url(#Безымянный_градиент_13-49)"/><path d="M559.14,258.6a1,1,0,0,0,.48-.12,1,1,0,0,0-1-1.75,1,1,0,0,0,.49,1.87Z" transform="translate(-432.99 -211.95)" style="fill:url(#Безымянный_градиент_13-50)"/><path d="M555.7,253.9a1,1,0,1,0,.27-1.39,1,1,0,0,0-.27,1.39Z" transform="translate(-432.99 -211.95)" style="fill:url(#Безымянный_градиент_13-51)"/><path d="M553.58,250.32a1,1,0,1,0-.78-.38A1,1,0,0,0,553.58,250.32Z" transform="translate(-432.99 -211.95)" style="fill:url(#Безымянный_градиент_13-52)"/><path d="M549.62,244.82a1,1,0,0,0,0,1.42,1,1,0,0,0,.73.31,1,1,0,1,0-.69-1.73Z" transform="translate(-432.99 -211.95)" style="fill:url(#Безымянный_градиент_13-53)"/><path d="M562.28,267a1,1,0,0,0,1,.66,1,1,0,0,0,.33,0,1,1,0,0,0,.61-1.28,1,1,0,0,0-1.27-.61A1,1,0,0,0,562.28,267Z" transform="translate(-432.99 -211.95)" style="fill:url(#Безымянный_градиент_13-54)"/><path d="M561.38,263.06a1,1,0,0,0,.91-1.41,1,1,0,1,0-.91,1.41Z" transform="translate(-432.99 -211.95)" style="fill:url(#Безымянный_градиент_13-55)"/><path d="M563.72,271.72a1,1,0,0,0,1,.75l.25,0a1,1,0,1,0-.51-1.94A1,1,0,0,0,563.72,271.72Z" transform="translate(-432.99 -211.95)" style="fill:url(#Безымянный_градиент_13-56)"/><path d="M564.75,276.52a1,1,0,0,0,1,.83h.16a1,1,0,1,0-1.15-.82Z" transform="translate(-432.99 -211.95)" style="fill:url(#Безымянный_градиент_13-57)"/><path d="M555.82,319a1,1,0,0,0,.27,1.39,1.06,1.06,0,0,0,.56.16,1,1,0,0,0,.83-.44,1,1,0,1,0-1.66-1.11Z" transform="translate(-432.99 -211.95)" style="fill:url(#Безымянный_градиент_13-58)"/><path d="M496,344.13a1,1,0,0,0-.37,2h.19a1,1,0,0,0,1-.81A1,1,0,0,0,496,344.13Z" transform="translate(-432.99 -211.95)" style="fill:url(#Безымянный_градиент_13-59)"/><path d="M510.7,345a1,1,0,0,0,.07,2h.06a1,1,0,0,0,.93-1.06A1,1,0,0,0,510.7,345Z" transform="translate(-432.99 -211.95)" style="fill:url(#Безымянный_градиент_13-60)"/><path d="M491.25,343a1,1,0,0,0-.53,1.93l.27,0a1,1,0,0,0,.26-2Z" transform="translate(-432.99 -211.95)" style="fill:url(#Безымянный_градиент_13-61)"/><path d="M505.79,345.14a1,1,0,0,0-1,1,1,1,0,0,0,1,1h0a1,1,0,0,0,0-2Z" transform="translate(-432.99 -211.95)" style="fill:url(#Безымянный_градиент_13-62)"/><path d="M500.89,344.84a1,1,0,1,0-.2,2h.1a1,1,0,0,0,.1-2Z" transform="translate(-432.99 -211.95)" style="fill:url(#Безымянный_градиент_13-63)"/><path d="M477.7,337.34a1,1,0,0,0-1.36.36,1,1,0,0,0,.37,1.37h0a1,1,0,1,0,1-1.73Z" transform="translate(-432.99 -211.95)" style="fill:url(#Безымянный_градиент_13-64)"/><path d="M486.58,341.51a1,1,0,0,0-1.28.59,1,1,0,0,0,.59,1.29h0a.85.85,0,0,0,.35.07,1,1,0,0,0,.34-1.94Z" transform="translate(-432.99 -211.95)" style="fill:url(#Безымянный_градиент_13-65)"/><path d="M482.06,339.61a1,1,0,0,0-.86,1.81,1.12,1.12,0,0,0,.43.09,1,1,0,0,0,.43-1.9Z" transform="translate(-432.99 -211.95)" style="fill:url(#Безымянный_градиент_13-66)"/><path d="M542.43,333.2a1,1,0,0,0-.19,1.41,1,1,0,0,0,.8.39,1.08,1.08,0,0,0,.61-.2,1,1,0,0,0-1.22-1.6Z" transform="translate(-432.99 -211.95)" style="fill:url(#Безымянный_градиент_13-67)"/><path d="M549.72,326.64a1,1,0,0,0,0,1.41,1,1,0,0,0,.69.27,1,1,0,0,0,.73-.32,1,1,0,0,0-1.46-1.36Z" transform="translate(-432.99 -211.95)" style="fill:url(#Безымянный_градиент_13-68)"/><path d="M538.41,336a1,1,0,0,0-.31,1.38,1,1,0,0,0,.85.47.94.94,0,0,0,.53-.16,1,1,0,1,0-1.07-1.69Z" transform="translate(-432.99 -211.95)" style="fill:url(#Безымянный_градиент_13-69)"/><path d="M546.21,330.07a1,1,0,0,0-.07,1.42,1,1,0,0,0,.74.32,1,1,0,1,0-.67-1.74Z" transform="translate(-432.99 -211.95)" style="fill:url(#Безымянный_градиент_13-70)"/><path d="M515.58,344.52a1,1,0,0,0,.14,2h.15a1,1,0,1,0-.29-2Z" transform="translate(-432.99 -211.95)" style="fill:url(#Безымянный_градиент_13-71)"/><path d="M534.16,338.47a1,1,0,0,0-.42,1.35,1,1,0,0,0,.89.54,1,1,0,1,0-.47-1.89Z" transform="translate(-432.99 -211.95)" style="fill:url(#Безымянный_градиент_13-72)"/><path d="M520.4,343.6a1,1,0,0,0-.74,1.2,1,1,0,0,0,1,.77.91.91,0,0,0,.23,0,1,1,0,0,0-.46-2Z" transform="translate(-432.99 -211.95)" style="fill:url(#Безымянный_градиент_13-73)"/><path d="M525.13,342.28a1,1,0,0,0,.31,1.95,1.17,1.17,0,0,0,.31,0,1,1,0,1,0-.62-1.9Z" transform="translate(-432.99 -211.95)" style="fill:url(#Безымянный_градиент_13-74)"/><path d="M529.72,340.56h0a1,1,0,0,0-.54,1.31,1,1,0,0,0,.92.62,1.1,1.1,0,0,0,.39-.08,1,1,0,0,0-.78-1.85Z" transform="translate(-432.99 -211.95)" style="fill:url(#Безымянный_градиент_13-75)"/><path d="M577.22,298.39h0c1.9-1.21,3.69-2.35,3.72-4,0-1.39-1.12-2.66-2.86-4.43-1.13-1.15-2.41-2.45-2.42-3.31s1.27-2.1,2.39-3.23c1.55-1.54,3-3,2.84-4.56s-1.9-2.68-3.75-3.88c-1.34-.87-2.85-1.85-3-2.66s.81-2.33,1.68-3.66c1.19-1.84,2.31-3.57,1.82-5s-2.42-2.23-4.47-3c-1.41-.55-3.16-1.22-3.5-2s.31-2.45.89-4c.77-2,1.5-4,.72-5.3s-2.54-1.62-5-2c-1.55-.25-3.31-.54-3.79-1.2s-.21-2.45,0-4c.39-2.46.59-4.29-.38-5.37-.8-.89-2.26-1-3.44-1-.6,0-1.23,0-1.87.07h-.15c-.55,0-1.1.05-1.61.05a3.68,3.68,0,0,1-2.23-.45c-.61-.54-.71-2.35-.8-3.95-.13-2.49-.31-4.33-1.48-5.18a2.84,2.84,0,0,0-1.74-.48,15.73,15.73,0,0,0-3.65.65c-1.05.28-3.25.87-4,.46s-1.18-2.16-1.6-3.7c-.67-2.49-1.2-4.17-2.57-4.79s-3.25.34-5.18,1.33a9.75,9.75,0,0,1-3.45,1.32,1.21,1.21,0,0,1-.33,0c-.78-.26-1.61-1.88-2.34-3.32-1-2-1.93-3.79-3.45-4.12s-3,.84-4.83,2.36c-1.12.91-2.5,2-3.44,2h0c-.82-.09-2-1.5-3-2.75-1.38-1.71-2.68-3.33-4.24-3.33s-2.85,1.61-4.24,3.33c-1,1.23-2.12,2.63-2.92,2.71s-2.15-1-3.33-2l-.13-.11c-1.94-1.58-3.42-2.68-4.84-2.38s-2.28,1.89-3.36,4.1c-.68,1.39-1.54,3.11-2.33,3.28a1.12,1.12,0,0,1-.24,0,10,10,0,0,1-3.52-1.32,10.85,10.85,0,0,0-4.28-1.51,2.78,2.78,0,0,0-1.06.21c-1.41.64-1.95,2.65-2.51,4.78-.41,1.53-.87,3.26-1.58,3.67s-3-.22-4-.49a14.61,14.61,0,0,0-3.62-.69,2.91,2.91,0,0,0-1.76.49c-1.25.92-1.35,3-1.46,5.17-.07,1.51-.16,3.39-.78,3.95a3.55,3.55,0,0,1-2.15.43c-.56,0-1.17,0-1.85-.07s-1.3-.07-1.92-.07c-1.7,0-2.74.3-3.37,1-1,1.16-.7,3.21-.35,5.38.26,1.57.55,3.35.06,4s-2.26.94-3.83,1.18c-2.16.33-4.2.65-5,2s0,3.34.74,5.45c.54,1.45,1.16,3.09.9,3.89s-2,1.41-3.56,2c-2,.75-3.89,1.46-4.36,2.91s.66,3.22,1.87,5.09c.87,1.33,1.85,2.83,1.68,3.64s-1.69,1.79-3,2.66c-1.82,1.19-3.55,2.31-3.7,3.85s1.31,3,2.88,4.6c1.12,1.12,2.39,2.39,2.39,3.21s-1.26,2.08-2.37,3.2l-.08.08c-1.51,1.52-2.95,3-2.78,4.49s1.9,2.68,3.74,3.88c1.34.87,2.85,1.85,3,2.66s-.8,2.32-1.68,3.67c-1.19,1.83-2.31,3.57-1.82,5.05s2.15,2.12,4.51,3c1.54.6,3.13,1.21,3.47,2s-.31,2.44-.88,3.93c-.92,2.4-1.47,4.08-.74,5.33s2.92,1.69,5,2c1.57.25,3.36.53,3.85,1.21s.2,2.44,0,4c-.39,2.47-.59,4.29.38,5.38.61.68,1.69,1,3.32,1h.11c.59,0,1.23,0,1.91-.07s1.16-.06,1.72-.06a3.66,3.66,0,0,1,2.23.45c.62.55.71,2.35.79,3.94.13,2.5.31,4.33,1.48,5.18a2.72,2.72,0,0,0,1.66.46,15.25,15.25,0,0,0,3.64-.68c.91-.25,3.34-.93,4-.46s1.15,2.18,1.57,3.68c.6,2.15,1.17,4.18,2.56,4.8a2.33,2.33,0,0,0,1.08.24,10.61,10.61,0,0,0,4.19-1.5,9.67,9.67,0,0,1,3.46-1.33,1.11,1.11,0,0,1,.33,0c.78.25,1.61,1.89,2.35,3.34,1,1.94,1.92,3.77,3.44,4.09a2.25,2.25,0,0,0,.46,0c1.3,0,2.7-1.05,4.39-2.43,1-.84,2.61-2.12,3.41-2s2,1.51,3,2.78c1.22,1.51,2.39,2.95,3.72,3.24v.06h1V361c1.34-.3,2.5-1.74,3.72-3.26,1-1.24,2.12-2.64,2.94-2.72s2.22,1.06,3.35,2l.1.08c1.94,1.58,3.43,2.67,4.84,2.38s2.32-1.9,3.43-4.12c.71-1.42,1.52-3,2.32-3.28s2.46.62,3.82,1.31a10.34,10.34,0,0,0,4.18,1.51,2.31,2.31,0,0,0,1-.21c1.42-.62,2-2.64,2.52-4.79.41-1.53.87-3.25,1.58-3.67s3,.23,4,.5a15,15,0,0,0,3.58.68,2.9,2.9,0,0,0,1.76-.49c1.25-.91,1.35-3,1.46-5.18.07-1.51.16-3.4.77-3.95a3.56,3.56,0,0,1,2.16-.43c.5,0,1,0,1.56.06h.28c.66,0,1.32.07,1.93.07,1.71,0,2.74-.31,3.36-1,1-1.08.76-2.91.36-5.38-.25-1.57-.54-3.35-.06-4s2.25-.94,3.83-1.19c2.16-.33,4.21-.65,5-2s0-3.29-.77-5.35c-.58-1.48-1.23-3.17-.89-3.92s2-1.4,3.54-2c2-.78,3.94-1.51,4.41-3s-.49-3-1.85-5.07c-.87-1.34-1.86-2.85-1.69-3.66S575.88,299.24,577.22,298.39Zm-2.92,7.3c.69,1.05,1.84,2.82,1.64,3.44s-2.05,1.32-3.32,1.81c-2,.76-3.9,1.48-4.57,3s.08,3.37.88,5.44c.47,1.23,1.19,3.1.87,3.65s-2.31.86-3.66,1.07c-2.11.33-4.11.65-5,1.95s-.62,3.32-.28,5.45c.21,1.32.54,3.31.11,3.8-.1.11-.48.36-1.94.36-.55,0-1.15,0-1.83-.07H557c-.6,0-1.21-.07-1.77-.07a5.13,5.13,0,0,0-3.43.92c-1.2,1.08-1.3,3.12-1.41,5.31-.07,1.32-.17,3.31-.68,3.69a1.12,1.12,0,0,1-.64.12,14.1,14.1,0,0,1-3.12-.63,15.14,15.14,0,0,0-3.7-.71,3.36,3.36,0,0,0-1.74.41c-1.39.8-1.91,2.75-2.47,4.88-.34,1.28-.85,3.22-1.45,3.48a.53.53,0,0,1-.22,0,10.15,10.15,0,0,1-3.34-1.31,10.56,10.56,0,0,0-4.35-1.56,2.87,2.87,0,0,0-.9.14c-1.55.49-2.46,2.31-3.43,4.24-.56,1.11-1.49,3-2.13,3.12s-2.33-1.25-3.24-2c-1.6-1.3-3.24-2.66-4.85-2.48s-2.88,1.75-4.23,3.42c-.83,1-2.1,2.61-2.74,2.61s-1.9-1.56-2.79-2.66c-1.35-1.67-2.62-3.24-4.22-3.41s-3.16,1.1-4.84,2.47c-.77.63-2.58,2.12-3.22,2s-1.54-1.92-2.17-3.15c-1-1.92-1.9-3.73-3.42-4.23a3,3,0,0,0-.92-.13,10.61,10.61,0,0,0-4.34,1.54,10,10,0,0,1-3.32,1.29.5.5,0,0,1-.25,0c-.63-.28-1.19-2.28-1.56-3.62-.55-2-1.07-3.82-2.29-4.7a3.24,3.24,0,0,0-1.93-.54,14.92,14.92,0,0,0-3.68.71c-2.76.76-3.48.65-3.67.52-.53-.39-.64-2.49-.71-3.74-.11-2.15-.22-4.18-1.42-5.26a5.24,5.24,0,0,0-3.51-.94c-.6,0-1.24,0-1.93.07s-1.22.05-1.78.06c-1.49,0-1.86-.29-1.94-.37-.44-.49-.12-2.48.09-3.8.34-2.13.65-4.14-.3-5.45s-3-1.63-5.09-2c-1.31-.21-3.3-.53-3.63-1.09s.4-2.45.89-3.75c.76-2,1.47-3.87.81-5.33s-2.54-2.2-4.57-3c-1.17-.45-3.13-1.2-3.33-1.83s.89-2.31,1.62-3.42c1.17-1.81,2.28-3.51,1.94-5.1s-2-2.69-3.88-3.88c-1.11-.73-2.79-1.82-2.85-2.46s1.32-2,2.24-3l-.35-.35.44.27c1.5-1.51,2.93-2.94,2.92-4.54s-1.43-3-3-4.58c-.95-.95-2.38-2.38-2.31-3s1.73-1.72,2.87-2.46c1.8-1.16,3.5-2.26,3.84-3.86s-.78-3.28-2-5.09c-.73-1.12-1.83-2.82-1.64-3.44s2-1.26,3.27-1.73c2.12-.78,4.12-1.52,4.65-3.16.47-1.44-.2-3.25-.94-5.19-.48-1.28-1.19-3.21-.86-3.79s2.31-.87,3.64-1.07c2.12-.33,4.12-.64,5.07-1.95s.61-3.42.27-5.45c-.21-1.32-.53-3.32-.11-3.79.1-.11.5-.36,2-.36.58,0,1.2,0,1.82.07s1.33.07,1.94.07a5.12,5.12,0,0,0,3.43-.92c1.21-1.08,1.3-3.11,1.41-5.27.07-1.33.17-3.35.68-3.73a1.12,1.12,0,0,1,.63-.12,14,14,0,0,1,3.12.62,15.12,15.12,0,0,0,3.7.71,3.39,3.39,0,0,0,1.74-.41c1.39-.8,1.91-2.76,2.47-4.86.34-1.29.86-3.24,1.42-3.5s2.4.6,3.72,1.26a10.86,10.86,0,0,0,4.37,1.53,2.92,2.92,0,0,0,.66-.07c1.67-.36,2.62-2.27,3.62-4.3.54-1.1,1.45-3,2-3.08s2.32,1.25,3.23,2c1.67,1.36,3.26,2.64,4.86,2.48s2.88-1.75,4.22-3.42c.83-1,2.09-2.61,2.74-2.61s1.91,1.57,2.77,2.63c1.35,1.67,2.63,3.26,4.23,3.43s3.26-1.17,4.85-2.46c.91-.74,2.62-2.1,3.22-2s1.55,1.94,2.17,3.15c1,1.91,1.89,3.72,3.43,4.23a3,3,0,0,0,.92.13,10.66,10.66,0,0,0,4.38-1.56,9.87,9.87,0,0,1,3.27-1.27.71.71,0,0,1,.25,0c.59.27,1.12,2.23,1.48,3.57.56,2.06,1.09,4,2.47,4.81A3.45,3.45,0,0,0,542,229a15.2,15.2,0,0,0,3.67-.69c2.67-.71,3.51-.65,3.76-.48.53.39.64,2.48.71,3.79.12,2.13.23,4.14,1.42,5.21a5.26,5.26,0,0,0,3.51.94c.59,0,1.23,0,1.87-.06s1.2-.06,1.76-.06c1.52,0,1.92.26,2,.37.44.49.12,2.48-.09,3.8-.33,2.13-.65,4.14.3,5.45s2.93,1.63,5.08,2c1.24.2,3.31.52,3.63,1.09s-.39,2.43-.88,3.73c-.76,2-1.49,3.89-.82,5.36s2.55,2.21,4.56,3c1.25.48,3.13,1.2,3.33,1.82s-.89,2.31-1.61,3.42c-1.17,1.8-2.28,3.51-1.94,5.1s2,2.69,3.86,3.87c1.12.73,2.81,1.83,2.88,2.47s-1.35,2.06-2.31,3c-1.51,1.52-2.93,2.95-2.93,4.56s1.44,3.1,3,4.64c1,1,2.32,2.37,2.31,3.07s-1.79,1.72-2.9,2.43c-1.79,1.14-3.48,2.22-3.81,3.78S573.12,303.88,574.29,305.69Z" transform="translate(-432.99 -211.95)" style="fill:url(#Безымянный_градиент_13-76)"/><path d="M574.22,296.53c1.08-.69,2.81-1.79,2.82-2.36s-1.29-2-2.25-3c-1.48-1.51-2.88-2.93-2.88-4.52s1.38-3,2.85-4.43c.93-.93,2.31-2.31,2.25-2.94s-1.71-1.7-2.8-2.41c-1.76-1.15-3.42-2.23-3.75-3.76s.75-3.2,1.89-5c.7-1.08,1.77-2.72,1.57-3.32s-2-1.3-3.24-1.77c-2-.76-3.8-1.48-4.43-2.91s.06-3.27.8-5.21c.48-1.25,1.18-3.07.86-3.62s-2.33-.87-3.53-1.06c-2.09-.34-4-.65-4.95-1.92s-.61-3.23-.29-5.3c.2-1.28.52-3.22.09-3.69-.1-.11-.49-.36-2-.36-.54,0-1.13,0-1.71.06s-1.23.06-1.81.06a5.09,5.09,0,0,1-3.41-.9c-1.17-1-1.27-3-1.38-5.07-.07-1.26-.18-3.31-.69-3.68-.23-.17-1.06-.22-3.66.47a14.61,14.61,0,0,1-3.57.67,3.35,3.35,0,0,1-1.71-.41c-1.35-.78-1.87-2.67-2.4-4.68-.35-1.3-.87-3.21-1.44-3.47a.78.78,0,0,0-.24,0,9.43,9.43,0,0,0-3.17,1.23,10.51,10.51,0,0,1-4.27,1.52,2.88,2.88,0,0,1-.89-.14c-1.5-.5-2.39-2.26-3.33-4.11-.6-1.18-1.49-2.94-2.11-3.06s-2.25,1.2-3.13,1.92c-1.55,1.26-3.13,2.58-4.72,2.39s-2.8-1.7-4.11-3.32c-.84-1-2.06-2.57-2.68-2.57s-1.86,1.53-2.66,2.54c-1.31,1.62-2.56,3.17-4.11,3.33s-3.1-1.09-4.73-2.41c-.88-.72-2.54-2.07-3.14-1.93s-1.47,1.92-2,3c-1,2-1.9,3.83-3.52,4.18a3.1,3.1,0,0,1-.64.07,10.68,10.68,0,0,1-4.25-1.49c-1.27-.64-3-1.48-3.62-1.22s-1.05,2.15-1.38,3.4c-.53,2-1,3.94-2.4,4.72a3.31,3.31,0,0,1-1.68.4,14.6,14.6,0,0,1-3.61-.69,13.48,13.48,0,0,0-3-.6,1,1,0,0,0-.61.12c-.51.37-.6,2.32-.66,3.63-.11,2.09-.19,4.07-1.37,5.12a5,5,0,0,1-3.33.89c-.59,0-1.24,0-1.89-.07s-1.21-.07-1.77-.07c-1.42,0-1.8.24-1.91.35-.41.46-.1,2.4.11,3.68.33,2,.66,4-.26,5.3s-2.87,1.57-4.93,1.9c-1.28.19-3.22.5-3.54,1s.38,2.45.84,3.68c.71,1.9,1.37,3.65.91,5-.53,1.59-2.47,2.31-4.52,3.07-1.23.46-3,1.12-3.18,1.67s.88,2.26,1.58,3.34c1.15,1.76,2.24,3.42,1.91,4.95s-2,2.62-3.72,3.75c-1.12.72-2.73,1.78-2.8,2.39s1.33,2,2.26,2.95c1.49,1.5,2.89,2.89,2.89,4.45s-1.38,2.95-2.85,4.41l-.43-.26.35.35c-.89.89-2.25,2.26-2.18,2.87s1.7,1.69,2.78,2.4c1.78,1.16,3.44,2.24,3.77,3.77s-.75,3.2-1.89,4.95c-.71,1.09-1.77,2.73-1.57,3.33s2.11,1.33,3.25,1.77c2,.77,3.8,1.48,4.43,2.91s0,3.25-.79,5.18c-.49,1.26-1.19,3.09-.87,3.65s2.25.86,3.53,1.06c2.06.33,4,.64,4.95,1.92s.61,3.23.28,5.3c-.2,1.28-.51,3.22-.08,3.69.08.09.44.36,1.89.36.53,0,1.14,0,1.73-.06s1.28-.06,1.88-.06a5.08,5.08,0,0,1,3.4.9c1.18,1.06,1.27,3,1.39,5.11.06,1.22.17,3.27.68,3.64.18.14.88.24,3.57-.5a14.16,14.16,0,0,1,3.58-.7,3.15,3.15,0,0,1,1.88.52c1.2.86,1.7,2.66,2.24,4.57.36,1.3.9,3.25,1.52,3.52a.51.51,0,0,0,.24,0,9.52,9.52,0,0,0,3.22-1.25,10.4,10.4,0,0,1,4.22-1.5,2.83,2.83,0,0,1,.89.14c1.49.49,2.38,2.25,3.33,4.11.6,1.19,1.5,2.94,2.1,3.06s2.38-1.3,3.14-1.92c1.63-1.33,3.18-2.57,4.71-2.4s2.79,1.69,4.1,3.32c.87,1.07,2.09,2.58,2.71,2.58s1.85-1.52,2.65-2.53c1.31-1.63,2.55-3.17,4.11-3.33s3.17,1.15,4.72,2.41c.89.72,2.54,2.06,3.14,1.93s1.54-1.94,2.07-3c.94-1.87,1.84-3.64,3.34-4.11a2.8,2.8,0,0,1,.88-.14,10.26,10.26,0,0,1,4.23,1.52,9.86,9.86,0,0,0,3.25,1.27.49.49,0,0,0,.21,0c.58-.25,1.08-2.13,1.41-3.38.55-2.07,1.06-4,2.4-4.74a3.38,3.38,0,0,1,1.69-.4,15,15,0,0,1,3.6.68,13.57,13.57,0,0,0,3,.61,1.19,1.19,0,0,0,.62-.12c.5-.37.59-2.3.66-3.59.1-2.13.19-4.11,1.36-5.16a5,5,0,0,1,3.33-.89c.54,0,1.14,0,1.72.06h.17c.66,0,1.23.07,1.78.07,1.42,0,1.79-.24,1.89-.35.42-.47.11-2.4-.11-3.68-.33-2.07-.65-4,.27-5.3s2.85-1.58,4.91-1.9c1.31-.2,3.25-.51,3.55-1s-.39-2.35-.85-3.55c-.78-2-1.49-3.86-.86-5.29s2.49-2.15,4.43-2.89c1.23-.47,3-1.17,3.23-1.75s-.92-2.32-1.59-3.34c-1.14-1.76-2.23-3.41-1.9-5S572.48,297.64,574.22,296.53ZM507,349a62.49,62.49,0,1,1,62.48-62.48A62.49,62.49,0,0,1,507,349Z" transform="translate(-432.99 -211.95)" style="fill:url(#Безымянный_градиент_13-77)"/><path d="M507,230a57,57,0,0,0-53.28,37c-.28.73-.54,1.47-.78,2.21a56.8,56.8,0,0,0-2.8,16.42v.09c0,.38,0,.76,0,1.15a56.88,56.88,0,0,0,113.75,0c0-.39,0-.77,0-1.15v-.09a56.81,56.81,0,0,0-2.8-16.42c-.24-.74-.5-1.48-.78-2.21A57,57,0,0,0,507,230Zm-20.05,6.51a4.11,4.11,0,0,1,.68-.06c2.05,0,4.68,1.39,7.72,4.11.36.32.73.62,1.11.9a15,15,0,0,1-14.16,5.51c0-.37.09-.74.11-1.12.23-4.45,1.27-7.42,3-8.69C485.88,236.89,486.39,236.67,486.91,236.47Zm41.32.51c1.72,1.27,2.75,4.23,3,8.65q0,.81.17,1.59a15.12,15.12,0,0,1-14.12-6c.33-.26.66-.52,1-.81,3.33-3,6.18-4.43,8.32-4.12Q527.42,236.63,528.23,237Zm5,8.53a20.76,20.76,0,0,0-1.39-6.81,54.4,54.4,0,0,1,9.64,6.39,20.9,20.9,0,0,0-7,1.4c-.38.13-.76.24-1.14.34C533.32,246.39,533.27,246,533.24,245.5Zm14.54,65c-.47,0-.92.08-1.38.14a14.81,14.81,0,0,1,.4-6.18c2.9.46,5.79,1,8.66,1.52l.11,0,1.59.32a3.62,3.62,0,0,1-.1.38C556.16,308.91,552.95,310.22,547.78,310.5Zm-2.53,3.76c1.8,5,1.84,8.5.13,10.21s-5.16,1.67-10-.07c-.45-.16-.91-.29-1.37-.42a15.06,15.06,0,0,1,10.87-11C545,313.41,545.1,313.84,545.26,314.26ZM532,323.58a17.06,17.06,0,0,0-16.3,6.86,17.11,17.11,0,0,0-17.47.21,16.89,16.89,0,0,0-16.07-6.81,17.05,17.05,0,0,0-12.48-12.53,17,17,0,0,0-.43-7.16q2.65-.4,5.32-.74a36.34,36.34,0,0,0,64.72,0q2.75.35,5.49.76a16.8,16.8,0,0,0-.39,6.87A17.05,17.05,0,0,0,532,323.58Zm-.34,2c-.05.44-.1.87-.12,1.32-.22,5.26-1.52,8.53-3.75,9.46s-5.38-.4-9.2-3.82c-.39-.35-.79-.67-1.2-1A15.06,15.06,0,0,1,531.68,325.55Zm-17,6.58c-.2.36-.41.73-.59,1.11-2.24,4.76-4.69,7.28-7.11,7.28s-4.8-2.45-7-7.08q-.28-.58-.59-1.12A15.11,15.11,0,0,1,514.66,332.13Zm-18-.34c-.33.26-.66.52-1,.81-3.8,3.45-7,4.79-9.18,3.89s-3.56-4.18-3.82-9.43c0-.42-.07-.84-.12-1.25A15.12,15.12,0,0,1,496.63,331.79Zm-27.74-17.26c.15-.42.27-.84.39-1.27a15.06,15.06,0,0,1,10.94,10.95c-.5.13-1,.28-1.48.45-4.84,1.71-8.28,1.73-10,0S467.11,319.48,468.89,314.53Zm-1.69-46c-2.89-.46-5.76-.95-8.62-1.51l-1.71-.34a3.66,3.66,0,0,1,.24-1c.9-2.21,4.1-3.52,9.24-3.81.51,0,1-.08,1.52-.16A15,15,0,0,1,467.2,268.55Zm70,34.56a34.35,34.35,0,0,1-60.49,0A256.16,256.16,0,0,1,537.21,303.12Zm-60.15-33.19a34.34,34.34,0,0,1,59.81,0A256.27,256.27,0,0,1,477.06,269.93ZM458.6,306c2.88-.56,5.79-1.06,8.7-1.52a15,15,0,0,1,.44,6.48c-.47-.06-.94-.11-1.42-.13-5.17-.24-8.39-1.54-9.31-3.74a3.62,3.62,0,0,1-.2-.73C457.41,306.21,458,306.09,458.6,306ZM555.47,267c-2.82.55-5.67,1-8.52,1.49a15,15,0,0,1-.59-7c.34,0,.68.08,1,.1,5.14.25,8.35,1.54,9.27,3.74a3.82,3.82,0,0,1,.26,1.4Zm-10.52,1.81q-3,.45-5.93.82a36.35,36.35,0,0,0-64.09,0q-2.86-.36-5.71-.79a17,17,0,0,0,.62-7.52,17,17,0,0,0,12.09-12.45,17,17,0,0,0,16.16-6.37,17.12,17.12,0,0,0,17.56-.15,17.11,17.11,0,0,0,16.19,6.8,17,17,0,0,0,12.54,12A17,17,0,0,0,544.95,268.85Zm-28-29.91c-.23.21-.47.4-.71.59-.15-.27-.3-.53-.44-.81a21.17,21.17,0,0,0-3.88-5.87A53.84,53.84,0,0,1,522.77,235,21.11,21.11,0,0,0,516.93,238.94Zm-3,.63c.18.39.39.75.6,1.12a15.11,15.11,0,0,1-15.33.18q.41-.68.76-1.41c1.9-3.94,4-6.27,6-6.83l1,0,1,0C510,233.21,512.07,235.58,514,239.58Zm-15.78-1c-.19.4-.41.79-.63,1.17-.31-.24-.62-.48-.92-.75a21.07,21.07,0,0,0-5.87-3.93A53.85,53.85,0,0,1,502,232.85,21,21,0,0,0,498.2,238.6Zm-17.82,7.1c0,.26,0,.5-.07.76-.21-.07-.43-.12-.64-.19a21,21,0,0,0-7-1.41,54.42,54.42,0,0,1,9-6A20.74,20.74,0,0,0,480.38,245.7ZM479,248.15c.33.12.66.2,1,.3a15,15,0,0,1-10.54,10.93c-.12-.46-.25-.92-.41-1.38-1.59-4.52-1.68-7.8-.29-9.57l.69-.67C471.24,246.43,474.51,246.55,479,248.15Zm-11.85,10.52c.13.37.24.75.34,1.13-.41.06-.82.1-1.24.13a20.78,20.78,0,0,0-7.13,1.45,54.42,54.42,0,0,1,6.66-9.74A20.62,20.62,0,0,0,467.15,258.67Zm-.92,54.13c.36,0,.72.06,1.07.1-.09.32-.18.63-.29.95a19.55,19.55,0,0,0-1.43,8,54.32,54.32,0,0,1-7-10.65A19.65,19.65,0,0,0,466.23,312.8Zm13.18,13.74c.39-.14.77-.25,1.16-.35,0,.32.08.64.09,1a19.46,19.46,0,0,0,1.8,8,54.38,54.38,0,0,1-10.85-7.29A19.16,19.16,0,0,0,479.41,326.54ZM497,334.08c.23-.21.47-.4.71-.59.15.27.3.53.44.81a19,19,0,0,0,4.67,6.59,53.83,53.83,0,0,1-12.61-2.5A19,19,0,0,0,497,334.08Zm18.89,0c.14-.29.3-.57.45-.85.32.24.64.49.94.77a19.06,19.06,0,0,0,6.81,4.26,53.83,53.83,0,0,1-13,2.62A19.31,19.31,0,0,0,515.89,334.09ZM533.56,327c0-.33.05-.66.09-1,.34.1.69.19,1,.31a19.18,19.18,0,0,0,7.91,1.37A54.43,54.43,0,0,1,531.83,335,19.46,19.46,0,0,0,533.56,327Zm13.57-13.38c-.12-.32-.21-.65-.3-1,.35,0,.7-.09,1.06-.11a19.62,19.62,0,0,0,7.69-1.7,54.36,54.36,0,0,1-7,10.72A19.73,19.73,0,0,0,547.14,313.58Zm.35-54c-.22,0-.44,0-.67-.06.07-.24.13-.49.22-.73a20.58,20.58,0,0,0,1.35-6.92,54.42,54.42,0,0,1,6.22,9.1A20.82,20.82,0,0,0,547.49,259.62Zm-2.34-1.45c-.13.36-.22.72-.32,1.08a15,15,0,0,1-11-10.47c.46-.12.92-.25,1.37-.42,4.48-1.58,7.74-1.7,9.54-.37l.69.67C546.8,250.42,546.72,253.68,545.15,258.17Z" transform="translate(-432.99 -211.95)" style="fill:url(#Безымянный_градиент_13-78)"/><path d="M465.19,281.44l3,8.67,3-8.67h3.12l-4,11h-4.11l-4-11Z" transform="translate(-432.99 -211.95)" style="fill:#f1f4fa"/><path d="M480.38,284v1.86h4.13v2.22h-4.13v1.82h5.25v2.56h-8.26v-11h8.26V284Z" transform="translate(-432.99 -211.95)" style="fill:#f1f4fa"/><path d="M499.22,292.43h-3.44l-2.15-3.51a12,12,0,0,1-1.32-.07v3.59h-3V281.71a18.44,18.44,0,0,1,4.36-.49c2.36.09,4.87.9,4.87,3.89a3.47,3.47,0,0,1-2.05,3.26Zm-6.9-5.93c.7.14,3.28.43,3.28-1.33s-2.52-1.44-3.28-1.32Z" transform="translate(-432.99 -211.95)" style="fill:#f1f4fa"/><path d="M502.81,281.44h3v11h-3Z" transform="translate(-432.99 -211.95)" style="fill:#f1f4fa"/><path d="M512.76,284v2h4.13v2.22h-4.13v4.24h-3v-11H518V284Z" transform="translate(-432.99 -211.95)" style="fill:#f1f4fa"/><path d="M521.66,281.44h3v11h-3Z" transform="translate(-432.99 -211.95)" style="fill:#f1f4fa"/><path d="M531.61,284v1.86h4.13v2.22h-4.13v1.82h5.25v2.56H528.6v-11h8.26V284Z" transform="translate(-432.99 -211.95)" style="fill:#f1f4fa"/><path d="M543.79,281.22c3.15-.11,7.66.61,7.66,5.75s-4.49,5.77-7.62,5.66a21.15,21.15,0,0,1-3.32-.43V281.63A21.7,21.7,0,0,1,543.79,281.22Zm4.65,5.75c0-3-2.43-3.14-3.64-3.14a10.41,10.41,0,0,0-1.26.09v6a9.64,9.64,0,0,0,1.21.09C546,290.05,548.44,290,548.44,287Z" transform="translate(-432.99 -211.95)" style="fill:#f1f4fa"/></svg>